<?xml version="1.0" encoding="UTF-8" standalone="no"?>
<!DOCTYPE svg PUBLIC "-//W3C//DTD SVG 1.1//EN" "http://www.w3.org/Graphics/SVG/1.1/DTD/svg11.dtd">
<svg width="100%" height="100%" viewBox="0 0 500 500" version="1.1" xmlns="http://www.w3.org/2000/svg" xmlns:xlink="http://www.w3.org/1999/xlink" xml:space="preserve" xmlns:serif="http://www.serif.com/" style="fill-rule:evenodd;clip-rule:evenodd;stroke-linejoin:round;stroke-miterlimit:2;">
    <g>
        <path d="M350.59,294.25L348.86,293.81C348.29,293.65 347.73,293.43 347.17,293.24C346.05,292.86 345,292.31 343.95,291.77C342.91,291.23 341.96,290.52 340.99,289.88C340.08,289.13 339.18,288.37 338.37,287.53C339.53,287.81 340.6,288.21 341.68,288.57L344.88,289.6C345.95,289.9 346.98,290.29 348.05,290.53C349.1,290.84 350.16,291.08 351.22,291.31C353.34,291.75 355.47,292.09 357.64,292.24C359.82,292.38 362.02,292.39 364.34,292.08C362.47,293.56 360.08,294.25 357.73,294.59C355.35,294.89 352.92,294.73 350.59,294.25ZM337.35,217.55C339.13,217.43 340.86,217.46 342.58,217.44L345.16,217.32C346.02,217.27 346.87,217.33 347.72,217.22C349.42,217.04 351.12,217.02 352.79,216.74C353.62,216.63 354.47,216.58 355.3,216.43L357.78,215.99C361.08,215.34 364.32,214.46 367.46,213.26C370.59,212.01 373.66,210.53 376.51,208.48C374.53,211.43 371.57,213.65 368.45,215.37C365.31,217.1 361.86,218.23 358.35,218.94L355.7,219.36C354.82,219.48 353.93,219.51 353.04,219.58C351.26,219.74 349.48,219.64 347.71,219.56C345.95,219.48 344.2,219.15 342.46,218.91C340.73,218.51 339.02,218.09 337.35,217.55ZM337.85,198.16L340.26,197.23C341.06,196.9 341.88,196.68 342.65,196.3C344.2,195.58 345.8,195.01 347.29,194.22C348.05,193.84 348.83,193.52 349.57,193.11L351.78,191.9C354.69,190.21 357.47,188.34 360.06,186.19C362.62,184 365.05,181.61 367.08,178.75C366.16,182.18 364.08,185.23 361.68,187.87C359.26,190.52 356.36,192.7 353.27,194.5L350.9,195.76C350.1,196.15 349.26,196.47 348.45,196.82C346.82,197.55 345.1,198.03 343.4,198.52C341.7,199.01 339.93,199.26 338.21,199.59C336.45,199.78 334.7,199.93 332.94,199.96C334.58,199.27 336.23,198.74 337.85,198.16ZM327.22,183.96C325.59,184.64 323.95,185.28 322.27,185.8C323.65,184.68 325.08,183.71 326.48,182.69L328.52,181.11C329.19,180.57 329.92,180.13 330.55,179.55C331.83,178.42 333.2,177.42 334.41,176.24C335.03,175.66 335.69,175.13 336.28,174.53L338.06,172.74C340.37,170.3 342.51,167.72 344.38,164.91C346.21,162.09 347.87,159.12 349.01,155.8C349.09,159.35 347.96,162.86 346.41,166.07C344.84,169.3 342.67,172.21 340.22,174.81L338.3,176.69C337.65,177.3 336.94,177.84 336.25,178.4C334.9,179.56 333.38,180.51 331.89,181.46C330.4,182.42 328.78,183.16 327.22,183.96ZM320.03,160.03C319.4,160.76 318.77,161.48 318.06,162.15C317.39,162.83 316.69,163.49 315.99,164.15C314.58,165.45 313.03,166.59 311.53,167.77C309.93,168.83 308.33,169.87 306.67,170.8C307.92,169.34 309.26,168.01 310.56,166.66L312.44,164.57C313.05,163.86 313.75,163.25 314.32,162.51C315.47,161.04 316.79,159.74 317.85,158.22L319.54,156.03L321.11,153.77C323.17,150.74 325,147.56 326.5,144.21C327.95,140.84 329.19,137.34 329.75,133.57C330.14,135.46 330.08,137.42 329.89,139.34C329.69,141.27 329.25,143.16 328.69,145.02C328.12,146.88 327.37,148.68 326.52,150.43C326.13,151.32 325.61,152.15 325.12,152.98C324.63,153.81 324.16,154.67 323.59,155.45L321.9,157.82C321.3,158.57 320.67,159.3 320.03,160.03ZM304.89,139.51C304.54,140.41 304.22,141.34 303.79,142.2L302.51,144.81C302.03,145.65 301.53,146.48 301.03,147.3C300.53,148.12 300.02,148.94 299.43,149.71C298.88,150.49 298.3,151.26 297.72,152.02C296.54,153.54 295.19,154.92 293.91,156.33C292.51,157.64 291.1,158.92 289.61,160.12C290.61,158.47 291.71,156.94 292.77,155.39L294.29,153.02C294.77,152.23 295.36,151.5 295.8,150.68C296.69,149.04 297.79,147.54 298.57,145.87L299.88,143.44L301.06,140.95C302.6,137.62 303.88,134.18 304.81,130.63C305.69,127.07 306.34,123.42 306.28,119.61C306.97,121.4 307.23,123.34 307.36,125.27C307.48,127.21 307.36,129.15 307.1,131.08C306.85,133 306.4,134.9 305.85,136.76C305.61,137.71 305.24,138.61 304.89,139.51ZM284.7,130.16C284.62,131.13 284.39,132.07 284.18,133.02C283.97,133.97 283.8,134.93 283.5,135.85L282.64,138.62C282.3,139.53 281.93,140.42 281.56,141.31C281.19,142.2 280.81,143.09 280.35,143.94C279.93,144.8 279.47,145.65 279.01,146.49C278.08,148.17 276.96,149.74 275.92,151.33C274.73,152.83 273.53,154.32 272.25,155.73C272.98,153.95 273.83,152.27 274.65,150.58L275.78,148C276.13,147.14 276.6,146.33 276.91,145.45C277.54,143.7 278.39,142.05 278.92,140.28L279.83,137.67L280.62,135.03C281.63,131.51 282.36,127.91 282.74,124.26C283.06,120.61 283.14,116.89 282.49,113.14C283.45,114.81 284,116.69 284.43,118.57C284.84,120.46 285.02,122.4 285.07,124.35C285.12,126.29 284.96,128.23 284.7,130.16ZM264.75,128.9C264.68,129.86 264.66,130.84 264.51,131.79L264.08,134.67C263.88,135.61 263.66,136.55 263.43,137.49C263.2,138.43 262.96,139.36 262.63,140.27C262.34,141.18 262.019,142.09 261.7,143C261.03,144.8 260.17,146.52 259.37,148.25C258.43,149.92 257.48,151.58 256.42,153.16C256.87,151.29 257.459,149.5 258.01,147.7L258.73,144.99C258.95,144.08 259.29,143.21 259.459,142.29C259.81,140.46 260.41,138.7 260.65,136.87L261.16,134.16L261.53,131.43C262,127.79 262.17,124.12 261.989,120.46C261.75,116.8 261.26,113.12 260.04,109.51C261.25,111.01 262.079,112.78 262.79,114.58C263.49,116.39 263.96,118.28 264.3,120.19C264.65,122.1 264.79,124.05 264.83,125.99C264.89,126.96 264.81,127.93 264.75,128.9ZM247.32,138.19C247.25,139.15 247.16,140.11 247.06,141.06C246.84,142.97 246.41,144.84 246.05,146.72C245.53,148.56 245,150.4 244.35,152.19C244.34,150.26 244.48,148.38 244.59,146.51L244.65,143.7C244.65,142.76 244.77,141.84 244.72,140.91C244.63,139.05 244.78,137.2 244.59,135.36L244.44,132.6L244.15,129.86C243.73,126.22 243.03,122.62 241.98,119.1C240.88,115.6 239.53,112.14 237.49,108.92C239.02,110.09 240.25,111.62 241.36,113.19C242.47,114.79 243.38,116.51 244.17,118.29C244.96,120.06 245.56,121.92 246.06,123.79C246.35,124.72 246.5,125.68 246.67,126.64C246.84,127.59 247.05,128.54 247.13,129.51L247.39,132.4C247.42,133.37 247.43,134.33 247.43,135.3C247.43,136.27 247.42,137.23 247.32,138.19ZM231.07,153.16C230.68,151.28 230.44,149.41 230.17,147.55L229.66,144.79C229.47,143.87 229.4,142.94 229.16,142.04C228.7,140.24 228.48,138.39 227.91,136.63L227.21,133.96L226.38,131.33C225.23,127.85 223.82,124.46 222.08,121.23C220.3,118.03 218.28,114.91 215.63,112.17C217.36,113.01 218.88,114.25 220.29,115.57C221.69,116.91 222.93,118.41 224.06,119.99C225.19,121.57 226.15,123.27 227.02,125.01C227.49,125.86 227.83,126.77 228.2,127.67C228.55,128.57 228.95,129.46 229.22,130.39L230.07,133.17C230.29,134.11 230.49,135.05 230.68,136C230.88,136.94 231.06,137.89 231.16,138.85C231.29,139.8 231.39,140.76 231.48,141.72C231.65,143.63 231.61,145.55 231.64,147.46C231.5,149.37 231.35,151.28 231.07,153.16ZM214.19,157.72C213.6,155.88 213.17,154.05 212.7,152.23L211.91,149.54C211.62,148.65 211.46,147.73 211.13,146.86C210.47,145.11 210.06,143.3 209.32,141.61L208.34,139.02L207.24,136.5C205.73,133.16 203.97,129.94 201.91,126.9C199.8,123.9 197.46,121.01 194.54,118.57C196.36,119.22 197.99,120.3 199.53,121.46C201.07,122.64 202.46,124.01 203.74,125.47C205.04,126.92 206.17,128.5 207.21,130.14C207.77,130.94 208.21,131.81 208.66,132.67C209.11,133.53 209.6,134.37 209.97,135.26L211.1,137.94C211.42,138.85 211.71,139.77 212.01,140.69C212.3,141.61 212.58,142.53 212.78,143.48C213.01,144.41 213.21,145.35 213.4,146.29C213.77,148.17 213.93,150.1 214.15,151.99C214.22,153.9 214.27,155.81 214.19,157.72ZM378.11,232.65C376.04,235.16 373.14,236.89 370.14,238.15C367.12,239.41 363.87,240.09 360.62,240.37L358.17,240.48C357.36,240.49 356.54,240.43 355.73,240.39C354.1,240.35 352.5,240.07 350.91,239.8C349.31,239.53 347.77,239.04 346.22,238.63C344.7,238.07 343.2,237.49 341.75,236.81C343.38,236.85 344.94,237.04 346.51,237.18L348.86,237.32C349.64,237.36 350.4,237.49 351.18,237.47C352.73,237.47 354.27,237.62 355.8,237.55C356.57,237.52 357.34,237.57 358.1,237.51L360.39,237.38C363.42,237.13 366.43,236.68 369.4,235.94C372.36,235.15 375.28,234.17 378.11,232.65ZM368.81,276.01C366.94,277.49 364.55,278.18 362.2,278.52C359.82,278.82 357.4,278.66 355.06,278.18L353.33,277.74C352.76,277.58 352.2,277.36 351.65,277.17C350.52,276.79 349.47,276.23 348.42,275.7C347.38,275.16 346.43,274.45 345.46,273.8C344.55,273.06 343.65,272.3 342.84,271.45C344.01,271.74 345.07,272.14 346.15,272.5L349.35,273.53C350.42,273.83 351.45,274.21 352.52,274.46C353.57,274.77 354.63,275.01 355.69,275.24C357.81,275.68 359.94,276.02 362.11,276.17C364.29,276.31 366.49,276.32 368.81,276.01ZM368.02,259.75C365.31,260.421 362.49,260.57 359.73,260.36L357.66,260.12C356.98,260.02 356.3,259.85 355.63,259.71C354.27,259.451 352.97,258.981 351.68,258.541C350.38,258.08 349.17,257.43 347.94,256.85C346.76,256.16 345.59,255.45 344.5,254.63C345.87,254.84 347.16,255.18 348.45,255.47C349.76,255.72 351.04,256.03 352.32,256.27C353.61,256.47 354.87,256.78 356.15,256.921C357.42,257.13 358.7,257.25 359.97,257.37C362.52,257.57 365.07,257.63 367.63,257.43C370.19,257.22 372.76,256.84 375.36,256.041C373.35,257.951 370.69,259.05 368.02,259.75ZM368.91,349.23C366.18,342.87 364.21,336.19 363.12,329.36C360.01,309.82 365.54,294.77 371.55,276.65C380.08,250.92 382.75,222.98 377.45,196.28C369.7,157.23 337.25,120.72 299.85,107.34C272.81,97.661 243.14,99.21 215.81,106.84C206.2,109.52 196.79,112.93 187.71,117.05C187.04,117.37 177.43,122.63 177.14,122.35C192.27,136.71 200.44,152.42 204.83,165.63L204.84,165.62C240.36,151.5 276.83,163.28 276.83,163.28C367.42,199.85 333.23,287.53 333.23,287.53L333.22,287.53L333.22,287.54C331.5,335.46 376.65,366.81 380.74,369.54C375.53,365.88 371.3,354.8 368.91,349.23Z" style="fill:url(#_Linear1);"/>
        <path d="M218.21,286.63C205.5,280.08 193.98,271.4 183.78,261.511C173.6,251.59 164.57,240.46 157.49,228.2C161.51,234.01 165.89,239.55 170.59,244.79C175.26,250.06 180.2,255.08 185.38,259.81C190.58,264.52 196,268.98 201.71,273.03C207.39,277.12 213.37,280.79 219.59,283.97C225.79,287.17 232.2,290.01 238.87,292.1C240.5,292.71 242.19,293.14 243.87,293.62C245.56,294.08 247.22,294.62 248.94,294.94L254.06,296.05L259.239,296.88C260.1,297.01 260.959,297.18 261.829,297.27L264.44,297.51C266.19,297.64 267.93,297.88 269.68,297.95C273.18,298.04 276.69,298.26 280.19,298.05L282.83,297.98C283.71,297.96 284.59,297.95 285.46,297.85L290.72,297.36C292.48,297.24 294.22,296.93 295.96,296.66L301.2,295.87C294.35,297.6 287.37,299 280.27,299.51C276.73,299.91 273.17,299.84 269.61,299.91C267.83,299.93 266.05,299.74 264.27,299.66L261.6,299.51C260.709,299.45 259.829,299.3 258.94,299.2C244.74,297.65 230.88,293.21 218.21,286.63ZM195.5,317.9C191.94,321.06 188.02,323.89 183.71,326.05C179.42,328.26 174.77,329.83 169.97,330.62C165.72,331.36 161.36,331.36 157.08,330.86C156.97,333.06 156.77,335.21 156.5,337.38C156.18,340.08 155.78,342.76 155.31,345.43C154.33,350.77 153.02,356.05 151.36,361.22C149.69,366.38 147.53,371.39 145.02,376.19C142.43,380.96 139.28,385.42 135.66,389.4C138.73,384.97 141.46,380.38 143.63,375.51C144.21,374.31 144.66,373.05 145.18,371.83L145.94,369.98L146.59,368.1C147.02,366.84 147.51,365.6 147.89,364.33L149.03,360.51C150.45,355.38 151.6,350.19 152.46,344.94C153.34,339.71 153.92,334.37 154.19,329.15L154.28,327.46L155.91,327.72C160.42,328.44 165.03,328.53 169.56,327.9C174.09,327.27 178.52,325.93 182.73,324.03C186.94,322.13 190.92,319.68 194.62,316.83C198.31,313.98 201.78,310.77 204.83,307.17C202.26,311.15 199.04,314.69 195.5,317.9ZM180.48,245.84C184.83,250.7 189.54,255.22 194.49,259.43C204.39,267.86 215.4,274.95 227.24,280.22C228.73,280.86 230.18,281.57 231.69,282.16L236.23,283.91C237.74,284.48 239.3,284.94 240.83,285.46L243.14,286.22L245.49,286.87C251.7,288.75 258.109,289.87 264.53,290.85C277.42,292.52 290.55,292.61 303.61,291.33C300.38,291.85 297.14,292.46 293.87,292.83L288.96,293.31L286.5,293.55L284.04,293.66L279.09,293.84C277.44,293.88 275.8,293.79 274.14,293.77C270.84,293.79 267.55,293.43 264.25,293.17C251.1,291.83 238.1,288.42 226.01,282.96C219.98,280.2 214.13,277.02 208.59,273.39C203.09,269.7 197.82,265.65 192.95,261.18C188.05,256.74 183.5,251.93 179.36,246.79C177.29,244.23 175.36,241.55 173.5,238.84C171.64,236.13 169.9,233.33 168.41,230.4C172,235.89 176.07,241.03 180.48,245.84ZM258.73,203.08C262.9,204.02 266.98,205.41 270.89,207.22C278.69,210.81 285.78,216.2 291.18,223.05C293.87,226.47 296.19,230.18 298.12,234.1C298.6,235.08 299,236.09 299.45,237.08L300.11,238.58L300.66,240.12L301.77,243.2L302.67,246.34C305.01,254.74 305.99,263.46 306.11,272.13L301.11,272.08C301.4,263.74 300.87,255.36 299.03,247.26L298.32,244.22L297.41,241.24L296.96,239.75L296.4,238.3C296.03,237.34 295.69,236.35 295.28,235.4C293.63,231.59 291.59,227.95 289.19,224.56C284.35,217.78 277.8,212.23 270.34,208.34C266.61,206.39 262.66,204.82 258.579,203.68C254.5,202.54 250.3,201.74 246.05,201.53C250.31,201.53 254.57,202.13 258.73,203.08ZM300.47,315.54C300.47,315.54 308.64,299.34 311.15,277.81C314.28,251.07 308.66,216.11 267.73,193.84C267.73,193.84 239.91,181.25 209.84,191.5C195.21,196.49 180.05,206.88 167.31,226.77C167.31,226.77 165.18,224.56 162.21,220.33L162.13,220.22C162.01,220.05 161.89,219.87 161.76,219.69C157.93,214.13 152.86,205.38 149.12,193.84C149.12,193.84 149.165,195.977 149.11,197.83C149.01,214.17 147.81,277.08 136.03,320.45C136.03,320.45 136.69,320.46 137.75,320.27C137.3,320.5 136.86,320.7 136.45,320.86C137.07,320.68 137.76,320.44 138.48,320.11C142.38,319.15 149.72,315.49 151.31,301.62C151.31,301.62 156.47,283.7 173.49,285.88C180.64,287.39 189.61,292.16 200.79,302.34C200.79,302.34 197.75,306.56 191.65,311.3L191.53,311.39C183.15,317.55 169.49,324.15 150.49,322.63C150.49,322.63 150.43,323.02 150.32,323.75C150.29,323.92 150.25,324.12 150.22,324.33C148.68,333.52 140.43,377.64 120.46,397.71L120.45,397.72C120.17,398 119.89,398.27 119.61,398.54L119.38,398.76L119.42,398.76L119.55,398.77C121.59,398.91 141.7,400.03 165.58,394.08C161.38,393.63 157.27,392.74 153.31,391.35C157.94,391.66 162.49,391.92 167.02,391.88C169.28,391.84 171.54,391.78 173.78,391.56C174.09,391.54 174.4,391.51 174.71,391.48L174.73,391.47L174.76,391.47C183.3,388.75 192.07,385.04 200.48,380.02C198.9,380.37 197.31,380.67 195.71,380.87C193.38,381.13 191.04,381.34 188.7,381.3C184.02,381.3 179.37,380.76 174.88,379.6C179.51,379.52 184.08,379.39 188.59,378.96C190.84,378.73 193.08,378.47 195.29,378.06C197.51,377.7 199.7,377.21 201.86,376.62C204.03,376.07 206.15,375.35 208.24,374.55C208.6,374.42 208.96,374.28 209.32,374.13L209.36,374.11C214.06,370.6 218.56,366.63 222.74,362.09C218.32,363.92 213.65,365.09 208.94,365.56C204.24,366.05 199.5,365.93 194.88,365.17C199.54,364.69 204.11,364.16 208.59,363.26C210.82,362.78 213.04,362.28 215.2,361.61C217.37,360.96 219.51,360.23 221.57,359.33C222.61,358.9 223.64,358.44 224.64,357.94C225.63,357.39 226.6,356.83 227.6,356.3L227.71,356.24C235.08,346.82 241.17,335.34 245.17,321.36C245.17,321.36 280.46,323.18 300.47,315.54Z" style="fill:url(#_Linear2);"/>
        <path d="M301.04,317.98L301.02,317.9C300.58,318.06 300.14,318.22 299.7,318.37C276.75,326.38 246.99,324.63 246.99,324.63C258.14,345.31 276.25,350.88 291.74,351.22C288.24,351.01 284.75,350.32 281.37,349.24C279.65,348.66 277.97,347.98 276.32,347.22C274.67,346.45 273.08,345.57 271.53,344.61C268.43,342.69 265.58,340.39 262.96,337.85C261.65,336.58 260.43,335.21 259.26,333.8C258.1,332.37 257.019,330.95 256,329.29L254.43,326.73L257.48,327.05C260.93,327.42 264.54,327.52 268.08,327.5C271.64,327.51 275.19,327.31 278.74,326.99C280.52,326.84 282.28,326.61 284.05,326.35C285.81,326.11 287.57,325.79 289.32,325.42C292.83,324.72 296.27,323.73 299.69,322.54C296.55,324.33 293.16,325.73 289.69,326.85C286.21,327.95 282.64,328.76 279.03,329.32C275.43,329.92 271.78,330.19 268.13,330.34C265.5,330.41 262.88,330.4 260.239,330.25C261.66,332.21 263.29,334.11 264.97,335.86C267.35,338.38 270.02,340.62 272.82,342.67C275.66,344.68 278.69,346.44 281.89,347.87C285.07,349.31 288.43,350.38 291.88,351.22L291.84,351.22L291.94,351.23L291.9,351.22C307.67,351.55 320.67,346.46 320.67,346.46C305.58,338.92 301.32,319.36 301.04,317.98Z" style="fill:url(#_Linear3);"/>
        <path d="M198.911,302.89C198.911,302.89 169.398,318.407 154.16,313.44C154.16,313.44 154.558,318.437 152.523,320.535C152.523,320.535 179.628,321.627 198.911,302.89Z" style="fill:url(#_Linear4);"/>
        <path d="M323.18,217.81C321.7,214.02 319.98,210.31 317.96,206.76C313.83,199.69 308.46,193.32 302.12,188.1C295.73,182.94 288.47,178.94 280.84,176.1C273.2,173.29 265.23,171.49 257.2,170.63C249.18,169.72 241.1,169.66 233.1,170.24C225.1,170.87 217.14,172.01 209.43,174.1C217.31,172.87 225.26,172.27 233.18,172.19C241.1,172.08 249.02,172.57 256.799,173.71C264.57,174.91 272.24,176.74 279.49,179.63C286.75,182.46 293.61,186.28 299.59,191.2C305.61,196.07 310.68,202.04 314.69,208.68C316.69,212.01 318.42,215.5 319.92,219.1C320.63,220.92 321.35,222.74 321.95,224.6C322.62,226.44 323.11,228.34 323.67,230.22C327.69,245.42 328.44,261.451 327.84,277.37C330.1,261.6 330.27,245.29 326.7,229.46C325.77,225.52 324.64,221.61 323.18,217.81Z" style="fill:url(#_Linear5);"/>
        <path d="M256.299,183.23C262.88,184.81 269.32,186.89 275.37,189.8C281.43,192.67 287.13,196.26 292.16,200.65C297.25,204.96 301.52,210.19 305.07,215.83C306.97,218.6 308.36,221.66 309.9,224.64L311.79,229.31C312.09,230.1 312.46,230.86 312.72,231.66L313.47,234.08C317.6,246.96 319.14,260.671 319.38,274.41C320.8,260.74 320.16,246.68 316.46,233.18L315.79,230.65C315.56,229.8 315.22,228.99 314.94,228.16L313.11,223.23C311.59,220.07 310.21,216.82 308.3,213.85C304.65,207.83 300.14,202.26 294.78,197.63C289.4,193.04 283.36,189.26 276.96,186.37C270.53,183.53 263.8,181.45 256.94,180.19C250.09,178.88 243.14,178.3 236.22,178.29C229.3,178.37 222.38,178.86 215.63,180.28C222.49,179.73 229.35,179.78 236.16,180.24C242.96,180.71 249.71,181.7 256.299,183.23Z" style="fill:url(#_Linear6);"/>
    </g>
    <defs>
        <linearGradient id="_Linear1" x1="0" y1="0" x2="1" y2="0" gradientUnits="userSpaceOnUse" gradientTransform="matrix(-214.49,286.486,-286.486,-214.49,372.322,121.218)"><stop offset="0" style="stop-color:rgb(228,119,37);stop-opacity:1"/><stop offset="0.08" style="stop-color:rgb(234,98,36);stop-opacity:1"/><stop offset="0.11" style="stop-color:rgb(237,91,43);stop-opacity:1"/><stop offset="0.2" style="stop-color:rgb(239,66,83);stop-opacity:1"/><stop offset="0.35" style="stop-color:rgb(237,37,145);stop-opacity:1"/><stop offset="0.45" style="stop-color:rgb(218,67,152);stop-opacity:1"/><stop offset="0.76" style="stop-color:rgb(125,67,154);stop-opacity:1"/><stop offset="1" style="stop-color:rgb(68,70,157);stop-opacity:1"/></linearGradient>
        <linearGradient id="_Linear2" x1="0" y1="0" x2="1" y2="0" gradientUnits="userSpaceOnUse" gradientTransform="matrix(-214.489,286.485,-286.485,-214.489,341.822,98.381906)"><stop offset="0" style="stop-color:rgb(228,119,37);stop-opacity:1"/><stop offset="0.08" style="stop-color:rgb(234,98,36);stop-opacity:1"/><stop offset="0.11" style="stop-color:rgb(237,91,43);stop-opacity:1"/><stop offset="0.2" style="stop-color:rgb(239,66,83);stop-opacity:1"/><stop offset="0.35" style="stop-color:rgb(237,37,145);stop-opacity:1"/><stop offset="0.45" style="stop-color:rgb(218,67,152);stop-opacity:1"/><stop offset="0.76" style="stop-color:rgb(125,67,154);stop-opacity:1"/><stop offset="1" style="stop-color:rgb(68,70,157);stop-opacity:1"/></linearGradient>
        <linearGradient id="_Linear3" x1="0" y1="0" x2="1" y2="0" gradientUnits="userSpaceOnUse" gradientTransform="matrix(-214.489,286.485,-286.485,-214.489,418.443,155.748)"><stop offset="0" style="stop-color:rgb(228,119,37);stop-opacity:1"/><stop offset="0.08" style="stop-color:rgb(234,98,36);stop-opacity:1"/><stop offset="0.11" style="stop-color:rgb(237,91,43);stop-opacity:1"/><stop offset="0.2" style="stop-color:rgb(239,66,83);stop-opacity:1"/><stop offset="0.35" style="stop-color:rgb(237,37,145);stop-opacity:1"/><stop offset="0.45" style="stop-color:rgb(218,67,152);stop-opacity:1"/><stop offset="0.76" style="stop-color:rgb(125,67,154);stop-opacity:1"/><stop offset="1" style="stop-color:rgb(68,70,157);stop-opacity:1"/></linearGradient>
        <linearGradient id="_Linear4" x1="0" y1="0" x2="1" y2="0" gradientUnits="userSpaceOnUse" gradientTransform="matrix(-214.489,286.485,-286.485,-214.489,336.552,94.437)"><stop offset="0" style="stop-color:rgb(228,119,37);stop-opacity:1"/><stop offset="0.08" style="stop-color:rgb(234,98,36);stop-opacity:1"/><stop offset="0.11" style="stop-color:rgb(237,91,43);stop-opacity:1"/><stop offset="0.2" style="stop-color:rgb(239,66,83);stop-opacity:1"/><stop offset="0.35" style="stop-color:rgb(237,37,145);stop-opacity:1"/><stop offset="0.45" style="stop-color:rgb(218,67,152);stop-opacity:1"/><stop offset="0.76" style="stop-color:rgb(125,67,154);stop-opacity:1"/><stop offset="1" style="stop-color:rgb(68,70,157);stop-opacity:1"/></linearGradient>
        <linearGradient id="_Linear5" x1="0" y1="0" x2="1" y2="0" gradientUnits="userSpaceOnUse" gradientTransform="matrix(-214.489,286.486,-286.486,-214.489,356.023,109.014)"><stop offset="0" style="stop-color:rgb(228,119,37);stop-opacity:1"/><stop offset="0.08" style="stop-color:rgb(234,98,36);stop-opacity:1"/><stop offset="0.11" style="stop-color:rgb(237,91,43);stop-opacity:1"/><stop offset="0.2" style="stop-color:rgb(239,66,83);stop-opacity:1"/><stop offset="0.35" style="stop-color:rgb(237,37,145);stop-opacity:1"/><stop offset="0.45" style="stop-color:rgb(218,67,152);stop-opacity:1"/><stop offset="0.76" style="stop-color:rgb(125,67,154);stop-opacity:1"/><stop offset="1" style="stop-color:rgb(68,70,157);stop-opacity:1"/></linearGradient>
        <linearGradient id="_Linear6" x1="0" y1="0" x2="1" y2="0" gradientUnits="userSpaceOnUse" gradientTransform="matrix(-214.489,286.486,-286.486,-214.489,356.071,109.05)"><stop offset="0" style="stop-color:rgb(228,119,37);stop-opacity:1"/><stop offset="0.08" style="stop-color:rgb(234,98,36);stop-opacity:1"/><stop offset="0.11" style="stop-color:rgb(237,91,43);stop-opacity:1"/><stop offset="0.2" style="stop-color:rgb(239,66,83);stop-opacity:1"/><stop offset="0.35" style="stop-color:rgb(237,37,145);stop-opacity:1"/><stop offset="0.45" style="stop-color:rgb(218,67,152);stop-opacity:1"/><stop offset="0.76" style="stop-color:rgb(125,67,154);stop-opacity:1"/><stop offset="1" style="stop-color:rgb(68,70,157);stop-opacity:1"/></linearGradient>
    </defs>
</svg>
